<?xml version="1.0" standalone="no"?>
<!DOCTYPE svg PUBLIC "-//W3C//DTD SVG 20010904//EN"
 "http://www.w3.org/TR/2001/REC-SVG-20010904/DTD/svg10.dtd">
<svg version="1.0" xmlns="http://www.w3.org/2000/svg"
 width="1024.000000pt" height="1024.000000pt" viewBox="0 0 1024.000000 1024.000000"
 preserveAspectRatio="xMidYMid meet">

<g transform="translate(0.000000,1024.000000) scale(0.100000,-0.100000)"
fill="#000000" stroke="none">
<path d="M1657 10182 c-24 -32 -60 -99 -81 -148 -103 -240 -111 -278 -111
-499 1 -146 4 -182 24 -254 13 -46 36 -106 52 -133 16 -27 29 -52 29 -57 0
-14 93 -116 154 -169 97 -83 325 -187 454 -207 24 -4 46 -13 48 -19 4 -11 -20
-74 -85 -221 -18 -40 -41 -123 -61 -220 -12 -55 -24 -107 -26 -115 -3 -8 -6
-17 -6 -20 -1 -3 -5 -21 -10 -40 -15 -56 -18 -76 -35 -258 -14 -149 -15 -190
-4 -290 7 -64 15 -137 18 -162 5 -48 12 -78 67 -285 34 -128 85 -262 130 -340
13 -22 27 -51 31 -65 7 -25 21 -49 88 -150 21 -30 37 -59 37 -63 0 -14 88
-141 139 -202 28 -32 51 -65 51 -72 0 -7 4 -13 8 -13 5 0 21 -18 38 -40 16
-22 36 -42 44 -45 9 -3 24 -19 34 -36 10 -17 42 -55 70 -84 64 -67 98 -159
131 -357 3 -18 10 -44 15 -58 8 -22 86 -290 95 -330 2 -8 9 -31 14 -50 19 -62
13 -104 -25 -172 -19 -34 -41 -70 -48 -78 -14 -16 -107 -188 -138 -255 -10
-22 -24 -49 -30 -60 -32 -55 -56 -104 -63 -126 -8 -26 -50 -123 -66 -152 -29
-52 -97 -195 -104 -217 -4 -14 -24 -61 -45 -105 -60 -127 -92 -198 -95 -209
-1 -6 -5 -18 -8 -26 -3 -8 -10 -33 -16 -55 -5 -22 -17 -65 -26 -95 -23 -77
-30 -124 -29 -210 0 -64 9 -155 15 -155 1 0 3 -13 5 -30 2 -16 8 -39 13 -50 6
-11 23 -52 39 -91 62 -155 262 -329 446 -389 47 -15 91 -34 97 -41 7 -9 6 -31
-5 -76 -8 -35 -22 -109 -31 -166 -15 -96 -40 -196 -82 -321 -18 -53 -19 -54
-99 -90 -45 -20 -99 -49 -121 -64 -21 -15 -44 -27 -49 -27 -17 0 -105 -61
-160 -110 -27 -25 -67 -56 -87 -70 -20 -13 -38 -32 -40 -41 -4 -14 -91 -91
-115 -101 -4 -1 -28 -29 -52 -61 -49 -66 -78 -87 -91 -66 -12 20 -11 67 2 75
16 9 3 132 -17 162 -17 27 -58 29 -78 5 -44 -54 -87 -117 -105 -152 -27 -52
-37 -57 -44 -23 -8 38 -70 142 -105 175 -25 24 -32 26 -59 16 -21 -7 -35 -21
-43 -42 -7 -18 -20 -52 -30 -77 -10 -25 -21 -65 -25 -89 -13 -89 -28 -101
-126 -101 -33 0 -45 7 -81 45 -23 25 -46 45 -50 45 -12 0 -10 -69 3 -115 16
-57 -17 -269 -40 -258 -9 4 -34 7 -56 7 -38 1 -40 0 -43 -33 -5 -49 35 -215
59 -245 19 -24 19 -28 5 -70 -15 -43 -14 -49 18 -163 18 -65 52 -163 75 -219
22 -55 41 -103 41 -107 0 -4 -266 -7 -590 -7 -614 0 -634 -1 -667 -42 -11 -12
-8 -19 13 -39 l26 -24 641 -3 641 -2 24 -23 c14 -12 35 -39 49 -60 13 -21 35
-42 48 -47 27 -10 32 -29 13 -48 -9 -9 158 -12 751 -12 l763 0 80 45 c44 25
81 45 83 45 4 0 106 68 121 81 13 10 2509 11 3754 0 l755 -6 125 -64 c209
-107 159 -101 882 -101 l628 0 0 80 0 80 103 0 c81 0 107 4 124 18 20 15 39
16 155 11 83 -4 138 -3 146 4 6 5 12 27 12 48 0 59 -27 72 -140 68 -94 -4
-102 0 -81 39 6 9 18 42 27 72 9 30 25 72 35 92 19 36 35 85 63 183 14 49 30
136 44 245 7 52 10 57 54 85 68 43 84 88 49 134 -24 31 -100 41 -135 17 -34
-22 -37 -21 -32 11 31 179 32 215 10 237 -14 15 -18 14 -48 -9 -18 -14 -35
-25 -37 -25 -2 0 -4 51 -4 114 0 98 -3 117 -19 135 -37 41 -53 28 -83 -69 -15
-49 -31 -90 -34 -90 -18 0 -48 114 -64 243 -8 61 -34 89 -78 85 -30 -3 -32 -5
-31 -43 1 -22 5 -64 9 -92 7 -50 6 -53 -16 -62 -13 -5 -27 -6 -31 -2 -4 3 -12
40 -19 81 -15 100 -21 110 -67 110 -58 0 -68 -11 -54 -58 14 -47 16 -122 2
-122 -10 0 -25 49 -35 111 -7 44 -75 153 -105 169 -13 7 -37 9 -56 5 -56 -10
-142 -127 -194 -263 -10 -27 -17 -31 -34 -26 -38 11 -48 21 -100 85 -29 35
-63 69 -77 76 -13 7 -45 31 -69 54 -94 87 -249 166 -400 204 -8 2 -16 4 -17 5
-5 4 -17 6 -76 14 -31 5 -59 11 -61 15 -3 4 -12 96 -21 205 -8 108 -20 216
-25 239 -5 23 -19 94 -30 157 -12 63 -24 133 -28 155 -13 70 -9 75 63 75 91 0
235 32 322 71 24 10 46 19 49 19 4 0 23 12 43 27 20 16 52 37 72 48 52 29 71
45 103 90 17 22 42 52 56 67 44 46 108 183 120 253 0 3 2 10 4 17 3 7 9 36 15
63 7 28 14 61 17 75 13 55 16 247 5 268 -6 11 -14 38 -17 59 -3 21 -12 52 -18
68 -7 17 -16 48 -20 70 -8 40 -81 170 -121 215 -12 14 -32 47 -45 73 -12 26
-28 53 -34 60 -12 12 -131 177 -178 246 -13 19 -37 48 -54 65 -17 17 -42 51
-57 76 -14 25 -51 71 -81 102 -31 32 -56 61 -56 66 0 4 -21 30 -46 57 -25 28
-64 73 -85 100 -22 28 -61 67 -86 87 -25 21 -60 57 -78 81 -18 24 -59 62 -90
86 -32 24 -75 61 -95 81 -21 21 -71 60 -111 87 -41 27 -112 75 -158 106 -46
31 -87 57 -93 57 -14 0 -118 49 -118 55 0 16 42 67 105 130 121 121 210 219
235 255 13 19 28 40 34 45 19 17 100 126 139 187 20 32 46 67 57 78 18 18 64
103 174 318 25 50 99 246 110 294 3 9 16 52 30 95 13 43 28 108 31 145 4 37
10 70 14 72 3 3 8 109 10 238 3 257 -10 384 -55 533 -14 44 -26 90 -28 102 -3
11 -12 35 -20 52 -9 16 -16 41 -16 54 0 25 -33 111 -80 208 -19 41 -25 61 -17
64 31 10 125 33 153 38 47 9 199 83 279 135 72 48 174 144 234 220 37 48 80
152 117 285 45 163 28 344 -56 598 -32 99 -53 145 -98 210 l-57 84 -493 2
c-271 1 -491 -1 -488 -5 3 -5 -15 -19 -40 -32 -24 -14 -44 -28 -44 -33 0 -4
-4 -6 -9 -3 -5 3 -11 -2 -15 -12 -3 -9 -33 -48 -66 -87 -34 -38 -81 -100 -106
-137 -25 -38 -47 -68 -49 -68 -8 0 8 130 23 175 21 65 91 148 149 177 l46 23
-102 3 c-71 2 -108 -1 -118 -10 -22 -18 -102 -158 -113 -198 -5 -19 -16 -81
-24 -138 -8 -57 -17 -106 -21 -110 -8 -8 -72 26 -110 59 -16 15 -50 37 -75 50
-25 12 -73 41 -107 63 -135 90 -213 136 -240 142 -15 4 -55 23 -87 42 -33 20
-94 51 -135 69 l-76 33 -165 -1 c-91 0 -158 -3 -150 -6 62 -22 253 -98 286
-114 22 -10 46 -19 53 -19 10 0 70 -30 186 -94 11 -6 27 -16 35 -23 8 -6 38
-20 66 -31 28 -11 101 -54 162 -96 62 -42 115 -76 119 -76 11 0 94 -60 128
-93 17 -16 54 -42 83 -59 28 -16 52 -34 52 -38 0 -4 25 -32 56 -61 127 -120
284 -280 284 -289 0 -5 32 -46 71 -92 39 -46 78 -97 86 -115 9 -17 26 -37 39
-44 31 -16 94 -108 94 -135 0 -12 7 -27 15 -34 29 -24 135 -229 169 -325 19
-55 51 -145 71 -200 47 -133 64 -205 81 -355 39 -347 0 -676 -106 -907 -11
-24 -20 -48 -20 -54 0 -30 -83 -206 -142 -301 -26 -43 -48 -84 -48 -93 0 -8
-13 -29 -28 -47 -16 -18 -44 -55 -63 -83 -19 -27 -37 -51 -41 -53 -4 -2 -17
-20 -30 -40 -28 -46 -71 -102 -123 -157 -22 -23 -56 -63 -75 -88 -19 -24 -47
-52 -62 -61 -15 -9 -35 -29 -44 -45 -9 -15 -36 -45 -60 -67 -25 -21 -84 -77
-133 -124 -145 -140 -201 -187 -306 -258 -55 -37 -120 -82 -144 -100 -45 -32
-64 -37 -118 -26 -27 5 -32 12 -43 62 -33 153 -52 230 -63 257 -6 17 -12 35
-13 40 -1 6 -21 75 -44 155 -23 80 -46 168 -50 195 -4 28 -15 73 -23 100 -27
87 -56 189 -63 225 -13 68 -46 140 -75 165 -27 22 -39 25 -110 25 -43 0 -79 3
-79 7 0 3 23 38 51 76 27 38 65 101 84 141 67 143 115 367 115 537 0 87 1 89
31 116 42 37 89 111 89 140 0 45 -38 25 -138 -72 -126 -122 -224 -203 -270
-221 -20 -9 -62 -28 -92 -44 -79 -40 -170 -66 -289 -80 -187 -23 -306 5 -371
87 -19 23 -43 43 -52 43 -9 0 -33 -17 -53 -39 -73 -78 -172 -111 -334 -111
-140 1 -253 34 -382 111 -36 21 -70 39 -77 39 -6 0 -46 32 -89 70 -43 39 -90
76 -105 83 -16 6 -28 15 -28 20 0 4 -19 28 -41 52 -34 36 -48 45 -76 45 -37 0
-53 -21 -36 -49 5 -9 38 -35 73 -58 34 -23 67 -47 71 -55 5 -7 9 -54 9 -104 0
-94 24 -293 39 -322 4 -10 14 -39 20 -67 7 -27 25 -72 41 -100 15 -27 33 -66
39 -85 15 -47 128 -175 205 -231 21 -16 35 -29 30 -30 -5 -1 -313 0 -684 1
-474 1 -695 -2 -741 -10 -60 -10 -72 -17 -132 -71 -61 -55 -68 -66 -88 -131
-15 -50 -19 -85 -15 -117 5 -38 5 -43 -5 -26 -7 11 -36 46 -64 77 -94 101
-239 330 -339 530 -12 26 -27 53 -33 60 -5 7 -27 67 -47 133 -20 66 -45 147
-56 180 -41 129 -60 287 -60 489 0 229 14 331 75 556 63 233 69 249 145 402
22 42 44 94 49 116 6 22 41 84 78 138 36 55 75 119 86 143 10 24 31 56 46 70
14 14 42 49 61 76 82 118 305 352 416 435 28 21 72 57 98 79 26 23 64 48 84
57 21 8 53 27 72 42 63 49 80 60 285 170 74 39 142 72 152 72 9 0 26 9 38 20
12 12 51 31 87 44 35 13 79 31 97 40 54 28 211 86 234 86 12 0 29 5 37 10 27
18 -306 7 -370 -12 -92 -28 -420 -199 -524 -273 -22 -16 -69 -44 -103 -62 -60
-32 -63 -32 -73 -14 -5 11 -10 35 -10 53 0 18 -8 62 -19 98 -19 66 -27 87 -64
173 l-20 47 -531 0 -530 0 -24 -22 c-13 -13 -33 -23 -45 -23 -12 0 -23 -6 -23
-12 -1 -7 -2 -20 -3 -29 -1 -13 -4 -14 -15 -5 -10 9 -15 8 -19 -3 -4 -9 -1
-18 5 -22 7 -5 8 -2 3 6 -5 9 -4 11 4 6 9 -6 9 -11 0 -22 -13 -15 -23 -19 -15
-5 3 5 0 11 -8 14 -16 6 -17 -24 -1 -35 6 -5 5 -12 -4 -20 -11 -11 -13 -11 -6
1 5 9 4 12 -3 7 -7 -4 -12 -13 -12 -21 0 -7 -12 -23 -26 -34 -15 -12 -24 -21
-20 -21 4 0 -7 -20 -24 -45 -17 -25 -34 -44 -38 -44 -18 3 -26 -2 -14 -10 11
-7 11 -11 -1 -22 -7 -8 -12 -20 -9 -27 2 -6 -1 -12 -7 -12 -6 0 -10 -3 -9 -7
3 -13 -45 -113 -54 -113 -5 0 -6 -4 -3 -10 3 -5 1 -10 -4 -10 -6 0 -11 -5 -11
-11 0 -5 5 -7 11 -4 6 4 5 -2 -2 -13 -7 -12 -18 -18 -24 -14 -5 3 -5 -1 2 -9
9 -11 7 -22 -8 -49 l-20 -35 6 100 c6 98 34 209 61 250 8 11 14 26 14 34 0 8
23 49 50 92 28 43 50 82 50 86 0 5 23 32 52 61 l52 52 -82 0 -82 0 -43 -58z
m864 -243 c27 -12 49 -25 49 -29 0 -4 10 -10 23 -14 23 -5 70 -62 100 -122 9
-18 21 -74 27 -125 6 -52 15 -108 20 -126 9 -34 -2 -54 -67 -124 -113 -122
-213 -253 -213 -280 0 -15 -71 17 -113 51 -94 79 -113 104 -143 185 -26 71
-29 92 -28 190 1 100 4 117 33 190 39 96 91 153 175 195 71 36 74 36 137 9z
m5292 -68 c54 -34 112 -103 143 -171 27 -60 29 -74 29 -180 0 -110 -2 -118
-34 -185 -53 -109 -94 -173 -118 -184 -83 -39 -115 -44 -160 -26 -42 18 -94
71 -123 126 -11 20 -32 47 -47 60 -15 14 -48 51 -73 83 -41 54 -44 62 -42 112
3 70 36 209 58 242 29 44 127 132 159 142 49 15 170 5 208 -19z m-2708 -2646
c22 -14 56 -32 75 -40 19 -9 43 -20 52 -25 24 -13 207 -13 246 1 17 6 45 9 64
7 l33 -4 -39 -19 c-22 -11 -51 -30 -64 -42 -26 -24 -102 -53 -138 -53 -13 0
-25 -4 -28 -9 -3 -5 -45 -15 -93 -21 -181 -26 -460 23 -603 105 -36 20 -56 34
-45 30 40 -13 201 -17 260 -6 33 6 88 25 122 41 34 17 66 30 71 30 5 0 15 7
22 15 16 19 18 19 65 -10z m-265 -554 c47 -10 109 -29 138 -40 65 -26 120 -27
180 -2 40 16 129 34 277 56 39 6 66 -16 101 -80 15 -27 31 -52 35 -55 14 -10
-166 -79 -259 -100 -113 -25 -318 -27 -446 -5 -111 19 -336 97 -336 116 0 5
19 21 42 36 24 16 65 45 93 66 33 25 57 36 70 33 11 -3 58 -14 105 -25z m1122
-109 c13 -10 17 -10 22 0 3 7 3 1 0 -14 -6 -26 -4 -27 25 -23 17 2 34 -1 37
-7 4 -7 2 -8 -4 -4 -7 4 -12 2 -12 -5 0 -7 -11 -10 -29 -7 -17 2 -28 1 -26 -2
10 -16 -36 -42 -113 -64 -45 -13 -84 -21 -87 -18 -3 3 -5 24 -5 47 0 22 -5 46
-10 51 -38 38 159 82 202 46z m68 -6 c0 -2 -7 -6 -15 -10 -8 -3 -15 -1 -15 4
0 6 7 10 15 10 8 0 15 -2 15 -4z m-322 -158 c12 -40 26 -93 32 -118 7 -25 15
-49 20 -55 4 -5 10 -31 13 -56 4 -26 15 -75 26 -110 10 -35 29 -100 41 -144
12 -44 31 -107 41 -141 10 -33 19 -69 19 -80 0 -10 11 -55 25 -99 14 -44 25
-83 25 -87 0 -10 -148 -42 -265 -58 -184 -26 -691 -19 -744 9 -10 6 -24 32
-31 58 -7 26 -18 62 -25 78 -22 50 -55 155 -81 254 -13 51 -48 166 -78 255
-71 218 -88 277 -83 283 3 3 32 -3 64 -12 32 -10 83 -24 113 -33 42 -12 101
-16 250 -16 181 1 201 2 285 27 144 43 263 85 287 101 12 9 28 16 34 16 6 0
21 -33 32 -72z m389 -98 c47 -183 51 -205 48 -271 -3 -65 11 -166 25 -182 4
-5 7 5 5 22 -5 55 12 33 20 -25 5 -42 3 -59 -7 -66 -10 -8 -9 -9 4 -5 12 4 18
-3 22 -29 11 -53 26 -40 21 19 -4 41 -1 35 11 -28 8 -44 26 -121 40 -170 13
-50 24 -93 24 -96 0 -3 -54 -6 -121 -7 -84 0 -121 3 -123 11 -4 15 -50 163
-76 244 -11 35 -31 111 -45 170 -14 60 -37 155 -51 213 -14 58 -30 113 -35
124 -6 10 -17 35 -24 56 l-13 37 96 33 c54 18 104 36 112 41 31 18 42 3 67
-91z m-1796 84 c34 -6 36 -8 48 -66 9 -45 21 -68 45 -93 37 -36 51 -77 116
-325 21 -80 50 -183 65 -230 35 -113 63 -212 81 -285 28 -114 80 -279 129
-410 12 -33 28 -87 35 -120 15 -71 50 -186 60 -200 4 -5 13 -28 20 -50 7 -22
16 -44 20 -50 7 -10 23 -72 76 -290 14 -60 34 -135 44 -165 66 -204 92 -297
106 -380 9 -52 25 -106 34 -120 28 -39 75 -159 89 -225 7 -33 17 -68 22 -77 9
-17 -4 -18 -204 -18 -118 0 -229 -3 -246 -6 -28 -6 -31 -4 -25 12 17 47 45 64
107 64 46 0 70 6 103 25 77 45 110 115 78 163 -11 15 -19 42 -20 60 -1 18 -11
45 -23 60 -35 45 -44 73 -46 153 -1 55 -7 85 -21 109 -23 40 -62 70 -92 73
-21 1 -30 12 -14 19 12 5 102 131 102 142 0 63 -62 141 -121 153 -24 4 -29 12
-34 42 -27 174 -48 208 -180 294 -79 51 -194 104 -266 121 -79 19 -286 28
-382 15 -141 -18 -224 -46 -330 -112 -29 -18 -65 -39 -81 -45 -16 -7 -58 -44
-92 -81 -35 -38 -78 -74 -96 -81 -18 -7 -40 -19 -49 -27 -17 -14 -12 -26 -79
197 -10 36 -22 83 -26 105 -4 22 -11 45 -15 51 -5 6 -13 31 -18 55 -31 150
-94 385 -116 434 -8 17 -23 62 -35 100 -12 39 -25 78 -31 87 -5 10 -9 28 -9
41 0 13 -4 37 -9 53 -5 16 -14 56 -21 89 -6 33 -16 74 -21 92 -6 18 -12 40
-15 50 -22 89 -45 166 -53 182 -6 11 -11 26 -11 35 0 8 -5 27 -12 43 -6 15
-12 33 -13 38 -2 6 -6 22 -10 38 l-7 27 60 0 c33 0 74 -3 91 -6 l32 -7 -5 -88
c-5 -79 -3 -89 12 -90 49 -4 68 -3 80 5 8 6 17 5 24 -2 7 -7 16 -12 20 -12 12
0 0 111 -13 127 -6 7 -13 37 -14 68 -2 30 -6 59 -10 65 -7 11 -107 14 -118 4
-3 -4 -2 -15 4 -25 12 -23 6 -24 -27 -3 -22 15 -32 15 -80 5 -31 -7 -58 -10
-61 -8 -14 15 -14 125 0 159 l16 38 658 3 c362 1 676 3 698 4 22 2 56 0 76 -3z
m1879 -464 c0 -5 -4 -10 -10 -10 -5 0 -10 5 -10 10 0 6 5 10 10 10 6 0 10 -4
10 -10z m-1401 -535 c0 -5 -4 -3 -9 5 -5 8 -9 22 -9 30 0 16 17 -16 18 -35z
m977 -38 c-10 -7 -30 -25 -45 -40 -14 -15 -40 -43 -57 -61 -19 -20 -36 -52
-43 -84 -7 -28 -19 -56 -26 -62 -22 -19 -183 -31 -374 -28 l-183 3 -14 42 c-8
23 -22 82 -32 132 l-18 91 45 -6 c25 -2 161 -7 301 -10 241 -4 359 4 415 26
32 14 54 11 31 -3z m-230 -524 c0 -114 5 -153 24 -223 13 -47 24 -107 24 -135
l1 -50 -95 -3 c-52 -2 -132 2 -177 8 l-82 12 -19 41 c-22 48 -54 156 -70 237
-31 153 -44 205 -54 223 -10 20 -8 20 98 14 60 -3 152 -2 204 2 52 4 106 9
120 9 l25 2 1 -137z m128 -543 c9 -22 16 -45 16 -50 0 -6 15 -43 34 -82 19
-40 52 -118 74 -174 68 -175 184 -299 331 -355 72 -27 176 -23 245 10 l47 23
54 -42 c29 -23 58 -47 63 -53 5 -7 14 -46 21 -87 11 -81 47 -178 76 -210 20
-22 102 -50 144 -50 56 0 104 22 147 67 l43 46 53 -44 c29 -25 73 -59 98 -75
25 -17 68 -46 95 -65 75 -53 234 -125 395 -179 71 -24 209 -60 231 -60 13 0
20 -13 28 -52 5 -29 21 -111 35 -183 39 -195 54 -309 62 -459 l7 -136 -84 -1
c-147 -1 -240 -24 -387 -95 -53 -26 -124 -69 -157 -94 -72 -56 -265 -243 -265
-257 0 -6 -24 -36 -54 -67 -30 -31 -83 -98 -117 -149 -34 -50 -79 -112 -100
-138 -21 -25 -46 -67 -56 -95 -11 -27 -35 -72 -54 -101 -68 -103 -91 -144
-109 -193 -10 -28 -32 -69 -49 -92 -17 -23 -31 -45 -31 -50 0 -4 -14 -30 -30
-57 -17 -27 -40 -77 -51 -112 -11 -35 -34 -82 -50 -105 -16 -24 -29 -45 -29
-48 0 -3 -18 -31 -39 -62 l-39 -57 -594 1 c-326 1 -639 1 -695 2 l-103 0 0 30
c0 21 -8 35 -26 47 -35 22 -58 7 -62 -41 l-3 -36 -77 0 c-76 0 -122 16 -122
42 0 11 -16 50 -60 143 -15 33 -31 71 -35 85 -11 36 -100 216 -125 251 -12 16
-30 52 -40 80 -17 50 -45 99 -122 218 -20 31 -44 76 -54 101 -20 50 -172 265
-279 394 -77 93 -251 259 -315 301 -172 112 -257 138 -467 143 -164 3 -157 -2
-127 102 23 81 53 204 70 290 8 41 19 84 24 95 5 11 12 30 15 43 5 15 12 21
23 18 38 -11 192 -26 274 -26 93 0 236 27 317 59 190 76 199 81 350 191 81 59
274 237 283 261 10 27 34 34 198 55 117 15 214 19 505 19 l360 1 41 26 c45 29
81 78 90 125 4 18 -3 65 -16 114 -12 46 -28 111 -35 144 -19 95 -73 293 -100
371 -14 40 -32 105 -40 145 -9 41 -25 103 -35 138 -11 35 -20 67 -20 73 0 6
61 7 169 2 116 -4 174 -3 187 4 28 17 30 15 48 -28z m974 -421 c17 -6 33 -18
37 -27 14 -33 34 -128 35 -159 l0 -32 -77 35 c-43 20 -82 40 -88 45 -11 11 9
114 26 135 14 17 26 17 67 3z m2522 -2149 c36 -70 40 -106 11 -91 -10 6 -46
11 -80 12 -33 1 -61 6 -61 12 0 16 60 115 73 120 23 10 27 7 57 -53z m20 -148
c0 -7 -4 -10 -10 -7 -5 3 -10 16 -10 28 0 18 2 19 10 7 5 -8 10 -21 10 -28z
m278 -466 c16 -14 33 -26 40 -26 7 0 12 -3 12 -7 0 -5 15 -24 33 -43 49 -51
58 -74 76 -182 30 -174 0 -371 -80 -530 -58 -117 -73 -135 -138 -167 -125 -64
-226 -76 -359 -45 -97 23 -104 34 -110 173 -5 119 20 349 44 406 8 19 14 46
14 61 0 61 107 253 175 315 69 63 111 80 193 76 62 -4 77 -8 100 -31z m-720
-31 c-2 -26 -12 -32 -23 -15 -3 6 -1 10 4 10 6 0 10 3 10 8 -2 12 1 22 6 22 3
0 4 -11 3 -25z m7 -45 c-3 -5 0 -10 8 -10 8 0 17 -6 20 -13 4 -10 -5 -14 -29
-14 -22 0 -30 3 -22 8 7 5 14 13 14 19 2 17 4 20 10 20 3 0 2 -4 -1 -10z m-48
-52 c-3 -8 -6 -5 -6 6 -1 11 2 17 5 13 3 -3 4 -12 1 -19z m-6823 -19 c53 -28
110 -102 161 -208 45 -94 59 -140 85 -278 34 -182 36 -251 8 -329 -12 -36 -30
-69 -38 -74 -9 -5 -89 -5 -179 0 -154 8 -166 10 -224 39 -61 31 -137 110 -137
144 0 7 -7 27 -14 43 -28 55 -58 225 -58 317 2 179 74 318 187 362 56 21 153
14 209 -16z m6850 -44 c-4 -8 -8 -15 -10 -15 -2 0 -4 7 -4 15 0 8 4 15 10 15
5 0 7 -7 4 -15z"/>
<path d="M6020 5823 c0 -23 15 -39 23 -26 3 5 -1 17 -9 28 -14 18 -14 18 -14
-2z"/>
<path d="M6235 5681 c-3 -5 -1 -12 5 -16 5 -3 10 1 10 9 0 18 -6 21 -15 7z"/>
<path d="M3219 6218 c-16 -10 -29 -22 -29 -27 0 -30 32 -33 342 -30 172 2 323
0 334 -4 19 -7 22 -17 26 -82 3 -66 7 -78 31 -102 26 -27 30 -28 167 -31 129
-4 142 -3 174 18 24 14 39 33 46 58 16 57 12 143 -8 181 l-17 34 -518 1 c-481
2 -520 1 -548 -16z m981 -123 c0 -34 -12 -46 -25 -24 -9 14 3 59 15 59 6 0 10
-16 10 -35z m-160 -11 c0 -31 -23 -28 -28 4 -2 15 2 22 12 22 11 0 16 -9 16
-26z"/>
<path d="M5564 2211 c-27 -9 -66 -27 -85 -38 -19 -12 -64 -39 -101 -59 -71
-40 -82 -59 -50 -87 25 -22 39 -21 98 7 27 13 78 37 114 52 36 16 76 36 90 45
14 9 42 27 62 40 21 13 38 29 38 35 0 28 -92 31 -166 5z"/>
<path d="M1877 10226 c-4 -10 -1 -13 8 -9 8 3 12 9 9 14 -7 12 -11 11 -17 -5z"/>
<path d="M7370 10201 c0 -6 4 -13 10 -16 6 -3 7 1 4 9 -7 18 -14 21 -14 7z"/>
<path d="M1725 10020 c-4 -6 -11 -7 -17 -4 -7 4 -8 2 -4 -4 7 -12 36 -5 36 9
0 12 -7 11 -15 -1z"/>
<path d="M5994 9572 c-18 -12 -34 -50 -28 -65 5 -15 91 -57 114 -57 24 0 153
-70 197 -107 25 -21 85 -77 134 -125 91 -91 108 -99 163 -78 41 15 34 50 -21
104 -25 25 -50 46 -54 46 -5 0 -41 30 -81 66 -40 36 -84 71 -98 77 -14 6 -34
19 -45 28 -11 9 -64 40 -117 68 -91 48 -138 60 -164 43z"/>
<path d="M3918 9498 c-133 -85 -235 -157 -279 -200 -25 -24 -57 -51 -71 -60
-28 -19 -54 -79 -44 -103 3 -10 19 -15 42 -15 32 0 45 8 97 60 32 33 73 68 90
77 18 9 51 32 73 52 96 83 213 132 255 107 24 -14 83 5 87 28 12 61 -34 96
-125 96 -52 0 -66 -5 -125 -42z"/>
<path d="M9230 9449 c-56 -7 -83 -13 -171 -35 -19 -5 -61 -114 -84 -214 -8
-36 -46 -159 -84 -274 -39 -114 -70 -211 -69 -215 4 -16 -58 -236 -99 -351 -9
-25 -18 -75 -20 -111 -4 -63 -3 -69 26 -101 31 -35 45 -41 171 -70 51 -12 55
-15 52 -41 -1 -15 4 -42 12 -60 7 -17 16 -40 20 -49 7 -23 94 -24 179 -2 33 8
72 17 86 19 14 2 82 13 151 25 69 11 141 23 160 25 93 12 191 26 245 35 33 5
89 14 125 19 70 11 198 42 243 60 15 6 30 18 34 26 3 9 -4 62 -16 118 -11 56
-23 127 -26 157 -9 89 -3 86 -162 66 -150 -18 -199 -25 -433 -63 -85 -13 -169
-26 -185 -28 -17 -2 -59 -9 -95 -16 -104 -18 -140 -22 -140 -12 0 10 36 119
50 148 11 25 60 189 70 235 5 19 36 114 70 210 34 96 69 202 77 235 9 33 26
91 39 128 13 38 24 75 24 82 0 8 -22 26 -50 40 -52 27 -85 29 -200 14z m120
-103 c0 -2 -11 -37 -24 -77 -33 -102 -58 -187 -67 -234 -4 -22 -34 -119 -67
-215 -33 -96 -67 -206 -76 -244 -21 -91 -114 -322 -143 -356 -29 -36 -112 -49
-149 -25 -21 14 -23 21 -18 58 7 56 40 169 68 237 13 30 28 75 35 100 6 25 24
97 41 160 16 63 34 131 38 150 5 19 31 94 57 165 26 72 56 157 66 190 18 58
21 61 66 76 42 15 173 26 173 15z m722 -1058 c5 -40 14 -78 20 -85 10 -13 2
-15 -127 -32 -38 -5 -178 -29 -310 -52 -409 -71 -605 -100 -605 -88 1 29 35
121 60 159 31 48 32 48 103 59 40 7 115 19 167 27 52 9 128 20 168 24 40 5 76
11 80 14 5 3 82 12 173 20 90 9 184 20 209 24 25 5 46 7 48 6 2 -1 8 -35 14
-76z"/>
<path d="M5850 9353 c-75 -25 -144 -54 -171 -74 -43 -31 -95 -143 -107 -234
-16 -121 19 -348 69 -447 11 -21 19 -43 19 -51 0 -7 16 -40 36 -73 20 -32 52
-86 71 -119 67 -117 266 -325 419 -441 62 -46 115 -84 118 -84 2 0 42 -18 88
-39 177 -83 391 -93 534 -26 29 14 57 25 62 25 20 0 97 73 121 114 37 64 61
144 61 201 0 118 -42 280 -106 405 -18 36 -38 77 -43 92 -27 74 -266 323 -368
385 -32 19 -65 42 -74 51 -51 51 -324 221 -444 276 -92 42 -121 51 -175 52
-37 2 -84 -4 -110 -13z"/>
<path d="M4135 9340 c-44 -9 -144 -47 -161 -61 -6 -5 -36 -17 -66 -27 -30 -10
-74 -31 -99 -46 -24 -15 -69 -43 -99 -61 -65 -40 -149 -102 -227 -167 -31 -27
-62 -48 -68 -48 -7 0 -34 -23 -61 -52 -72 -75 -87 -90 -122 -120 -17 -15 -43
-49 -56 -76 -13 -27 -32 -54 -40 -61 -9 -8 -34 -52 -57 -100 -96 -206 -119
-389 -67 -551 l28 -85 90 -72 c63 -50 102 -74 128 -78 20 -3 63 -13 94 -22
105 -30 284 -1 415 65 23 12 44 26 48 31 3 6 33 25 67 43 34 18 84 53 112 78
110 99 286 280 301 312 10 18 30 47 45 63 35 39 106 157 121 204 6 20 22 57
35 82 36 73 66 205 71 319 9 182 -23 281 -115 356 -89 74 -195 98 -317 74z"/>
<path d="M884 8381 c-12 -5 -31 -23 -43 -39 -21 -30 -21 -37 -21 -480 0 -372
-2 -452 -14 -461 -10 -9 -121 -11 -410 -9 l-396 3 0 -51 0 -51 413 -7 c463 -8
470 -7 501 58 14 30 16 88 16 480 l0 446 100 0 100 0 0 -592 0 -593 -565 3
-565 3 0 -61 0 -60 589 0 589 0 31 29 31 29 -2 656 -3 655 -23 23 c-21 21 -32
23 -165 25 -78 2 -152 -1 -163 -6z"/>
<path d="M5305 7970 c-66 -4 -256 -8 -423 -9 -183 0 -311 -5 -322 -11 -11 -6
-22 -26 -26 -45 -5 -30 0 -45 40 -107 25 -40 49 -77 53 -81 93 -94 174 -158
218 -172 28 -9 70 -22 95 -30 72 -22 143 -34 175 -29 150 25 219 59 308 153
36 39 80 99 98 133 17 35 37 74 45 88 15 28 18 68 6 88 -11 17 -69 32 -112 30
-19 -1 -89 -5 -155 -8z"/>
<path d="M9169 6846 c-3 -3 -40 -12 -83 -20 -42 -9 -110 -31 -150 -51 -39 -19
-79 -35 -88 -35 -9 0 -59 -35 -110 -78 -101 -85 -230 -242 -246 -302 -6 -19
-20 -60 -32 -90 -29 -73 -50 -148 -50 -182 0 -15 -4 -29 -8 -32 -9 -5 -7 -169
2 -196 2 -8 7 -36 10 -61 5 -48 50 -194 65 -213 4 -6 16 -34 25 -61 9 -28 26
-61 39 -75 12 -14 44 -52 70 -85 98 -123 278 -234 452 -281 151 -40 412 -25
525 31 25 12 66 27 91 34 39 11 187 115 246 174 59 57 144 186 178 266 93 222
106 404 44 613 -55 185 -116 286 -247 410 -84 79 -146 121 -225 153 -34 14
-70 30 -80 35 -36 21 -176 43 -297 47 -69 3 -128 2 -131 -1z m241 -117 c105
-13 145 -26 239 -79 211 -119 293 -217 388 -457 26 -65 27 -76 27 -238 -1
-166 -1 -172 -32 -249 -17 -43 -39 -90 -49 -105 -10 -14 -25 -42 -34 -62 -9
-20 -56 -77 -105 -128 -79 -82 -100 -98 -189 -141 -55 -27 -142 -61 -193 -76
-84 -24 -106 -26 -205 -22 -110 5 -182 23 -288 71 -19 9 -51 22 -71 31 -20 8
-65 41 -100 74 -35 33 -82 77 -105 97 -24 21 -43 44 -43 52 0 8 -15 42 -34 76
-93 167 -125 346 -91 517 20 106 26 124 80 229 33 68 69 119 123 178 42 46 79
83 83 83 4 0 47 25 97 55 99 62 170 85 282 95 120 11 131 11 220 -1z"/>
<path d="M9130 6517 c-138 -47 -219 -100 -300 -198 -32 -37 -53 -79 -82 -161
-66 -190 -54 -322 49 -521 18 -35 149 -164 188 -184 17 -9 66 -30 110 -46 162
-58 388 -33 519 57 102 71 143 119 197 226 81 159 89 296 30 460 -37 100 -67
148 -137 215 -114 110 -243 164 -404 170 -89 4 -115 1 -170 -18z m335 -123
c66 -32 97 -55 163 -121 36 -36 71 -83 83 -110 11 -26 27 -62 35 -80 15 -31
15 -181 0 -261 -7 -42 -87 -165 -140 -215 -49 -46 -161 -102 -231 -114 -56
-10 -177 -8 -215 4 -14 5 -65 32 -115 62 -80 47 -95 61 -135 123 -49 76 -61
100 -67 138 -2 13 -9 30 -14 36 -14 17 -9 183 6 219 7 17 18 44 23 61 32 101
163 227 280 270 57 22 274 13 327 -12z"/>
<path d="M1392 5560 c-13 -14 -21 -41 -25 -78 -10 -115 -29 -238 -39 -259 -6
-11 -7 -26 -4 -32 4 -6 2 -37 -3 -68 -6 -32 -18 -118 -26 -192 -9 -74 -20
-157 -26 -184 -5 -27 -9 -69 -9 -93 0 -23 -6 -71 -14 -106 -8 -35 -20 -119
-26 -188 -6 -69 -14 -132 -17 -140 -16 -41 -25 -172 -14 -189 16 -24 100 -42
236 -50 150 -10 155 -7 155 70 0 26 4 59 10 74 11 29 15 53 26 145 10 88 12
105 14 105 6 0 27 152 35 250 3 43 9 83 12 88 3 5 7 26 8 47 7 97 18 180 24
185 4 2 98 -87 208 -198 397 -400 407 -408 472 -381 52 22 131 101 178 179 24
39 43 75 43 82 0 15 -89 134 -115 153 -11 8 -40 37 -65 64 -25 28 -61 64 -80
81 -19 16 -55 52 -80 79 -25 26 -162 166 -305 310 l-260 261 -146 3 c-139 3
-148 2 -167 -18z m291 -135 c21 -19 42 -35 48 -35 5 0 9 -5 9 -11 0 -7 64 -74
143 -150 78 -76 150 -147 160 -158 22 -24 120 -122 136 -136 6 -5 56 -57 112
-115 55 -58 123 -127 149 -155 l49 -50 -63 -69 -63 -70 -78 75 c-133 126 -465
461 -518 521 -51 59 -122 103 -149 93 -21 -8 -25 -34 -38 -217 -6 -84 -17
-202 -25 -263 -7 -60 -17 -139 -20 -175 -4 -36 -15 -110 -25 -165 -10 -55 -24
-139 -31 -188 -11 -70 -16 -86 -29 -83 -8 2 -33 7 -55 10 -22 4 -53 9 -69 12
l-29 6 6 77 c6 81 26 216 57 396 10 61 21 128 25 150 3 22 10 67 15 100 14 81
57 450 66 553 l6 82 87 0 c84 0 87 -1 124 -35z"/>
<path d="M10074 5182 c-7 -5 -9 -84 -6 -261 5 -250 5 -255 28 -278 19 -19 34
-23 84 -23 l60 0 0 54 c0 49 -2 55 -22 58 -23 3 -23 5 -26 181 l-2 177 25 0
c23 0 25 3 25 50 l0 50 -77 0 c-43 0 -83 -4 -89 -8z"/>
<path d="M9390 4475 c-8 -10 -10 -27 -5 -53 4 -20 8 -49 10 -64 1 -16 4 -30 5
-33 1 -3 3 -8 4 -12 1 -5 5 -13 9 -19 4 -7 7 -23 7 -35 -1 -13 4 -82 10 -154
6 -71 8 -150 5 -175 -16 -124 -17 -127 -43 -205 -28 -85 -50 -140 -87 -220
-18 -38 -40 -86 -48 -105 -22 -50 -121 -155 -183 -195 -30 -19 -54 -38 -54
-43 0 -13 85 -80 122 -96 59 -26 234 -86 250 -86 36 0 196 150 198 185 0 6 10
21 23 35 29 32 87 121 87 133 0 5 9 22 20 37 11 16 32 59 46 97 14 37 29 73
34 78 8 11 48 133 74 227 24 83 21 158 -6 198 -35 50 -93 69 -214 69 -115 1
-113 0 -114 91 0 25 -7 64 -15 87 -8 24 -19 84 -25 135 -6 51 -17 103 -26 115
-17 27 -65 31 -84 8z m356 -553 c20 -14 24 -43 14 -115 -11 -76 -55 -221 -75
-247 -7 -8 -20 -35 -29 -59 -10 -25 -25 -56 -35 -70 -10 -14 -33 -55 -51 -91
-18 -35 -56 -89 -85 -120 -29 -30 -68 -73 -88 -95 l-35 -39 -58 19 c-32 11
-66 27 -77 35 -18 15 -18 16 7 43 56 60 169 249 188 313 4 10 20 58 38 107 34
97 65 209 75 280 l7 47 97 0 c53 0 101 -4 107 -8z"/>
<path d="M9067 4242 c-23 -25 -21 -41 8 -104 20 -43 25 -68 25 -138 0 -101
-10 -134 -69 -223 -41 -63 -43 -70 -30 -94 44 -81 131 -2 183 165 40 127 30
224 -32 337 -43 79 -57 88 -85 57z"/>
<path d="M935 3012 c-50 -20 -120 -53 -156 -73 -36 -20 -75 -40 -88 -44 -13
-4 -85 -40 -162 -81 -76 -41 -144 -74 -150 -74 -7 0 -47 -20 -90 -45 -43 -25
-80 -45 -83 -45 -3 0 -28 -14 -55 -30 -26 -17 -64 -35 -82 -41 -58 -20 -69
-36 -69 -100 l0 -59 52 21 c29 11 76 33 103 49 28 16 174 91 325 168 151 76
300 153 330 170 30 18 61 32 68 32 7 0 33 10 57 21 44 21 46 21 65 4 11 -10
20 -22 20 -28 0 -5 10 -23 23 -40 48 -68 48 -70 -6 -89 -27 -10 -70 -31 -96
-47 -26 -17 -96 -53 -156 -81 -61 -27 -128 -59 -150 -71 -84 -44 -212 -107
-270 -133 -33 -15 -77 -42 -98 -61 l-37 -32 25 -44 c14 -24 32 -66 41 -94 10
-27 27 -63 39 -80 11 -16 28 -43 36 -60 7 -16 31 -54 52 -84 20 -30 37 -62 37
-72 0 -9 15 -39 33 -65 36 -52 83 -134 128 -223 l28 -53 -27 -22 c-48 -39 -83
-58 -97 -52 -8 3 -17 1 -20 -4 -11 -18 -21 -10 -34 28 -15 41 -75 145 -103
178 -10 11 -34 51 -53 90 -37 75 -66 126 -125 219 -20 33 -41 71 -45 85 -4 14
-22 45 -40 70 -35 48 -72 116 -92 165 -10 26 -12 14 -12 -87 -1 -113 0 -119
30 -175 18 -32 39 -67 49 -78 19 -22 39 -59 69 -125 29 -63 84 -156 109 -183
11 -12 39 -60 61 -107 56 -115 121 -204 151 -208 38 -6 100 17 158 56 30 21
70 47 89 58 20 12 39 28 44 35 16 26 9 94 -13 136 -52 95 -72 130 -98 168 -14
22 -32 56 -40 75 -7 19 -41 80 -76 135 -34 55 -69 117 -77 137 -9 20 -27 54
-41 75 -27 39 -35 83 -15 83 14 0 153 69 206 103 23 14 54 29 70 33 29 7 247
117 273 138 8 7 35 20 60 29 25 9 80 37 123 62 93 55 95 63 34 173 -24 42 -49
93 -57 112 -13 34 -70 120 -80 119 -3 0 -46 -17 -95 -37z"/>
<path d="M10080 80 l0 -80 80 0 80 0 0 80 0 80 -80 0 -80 0 0 -80z"/>
</g>
</svg>
